<?xml version="1.0" encoding="UTF-8" standalone="no"?>
<svg
   xmlns:dc="http://purl.org/dc/elements/1.1/"
   xmlns:cc="http://creativecommons.org/ns#"
   xmlns:rdf="http://www.w3.org/1999/02/22-rdf-syntax-ns#"
   xmlns:svg="http://www.w3.org/2000/svg"
   xmlns="http://www.w3.org/2000/svg"
   xmlns:sodipodi="http://sodipodi.sourceforge.net/DTD/sodipodi-0.dtd"
   xmlns:inkscape="http://www.inkscape.org/namespaces/inkscape"
   version="1.1"
   x="0px"
   y="0px"
   viewBox="0 0 96 48.78125"
   enable-background="new 0 0 100 50.225"
   xml:space="preserve"
   id="svg2"
   inkscape:version="0.91 r13725"
   sodipodi:docname="cloud-connected-black.svg"
   width="96"
   height="48.78125"><metadata
     id="metadata16"><rdf:RDF><cc:Work
         rdf:about=""><dc:format>image/svg+xml</dc:format><dc:type
           rdf:resource="http://purl.org/dc/dcmitype/StillImage" /><dc:title></dc:title></cc:Work></rdf:RDF></metadata><defs
     id="defs14" /><sodipodi:namedview
     pagecolor="#ffffff"
     bordercolor="#666666"
     borderopacity="1"
     objecttolerance="10"
     gridtolerance="10"
     guidetolerance="10"
     inkscape:pageopacity="0"
     inkscape:pageshadow="2"
     inkscape:window-width="1920"
     inkscape:window-height="1017"
     id="namedview12"
     showgrid="false"
     inkscape:zoom="10.069201"
     inkscape:cx="27.445179"
     inkscape:cy="34.489979"
     inkscape:window-x="-8"
     inkscape:window-y="-8"
     inkscape:window-maximized="1"
     inkscape:current-layer="svg2" /><path
     d="m 95.31212,42.980533 -8.866,0 0,-38.414 c 0,-1.034 -0.467,-1.958 -1.199,-2.579 -0.619,-0.748 -1.556,-1.224 -2.604,-1.224 l -70.08,0 c -1.87,0 -3.3750004,1.51 -3.3750004,3.375 l 0,38.42 c 0,0.146 0.011,0.281 0.029,0.42 l -8.90200001,0 0,1.688 c 0,0.91 0.445,1.734 1.16500001,2.344 0.749,0.887 2.001,1.467 3.421,1.467 l 86.2560004,0 c 2.299,0 4.158,-1.51 4.158,-3.383 l 0,-1.688 m -83.176,-39.269 70.921,0 0,36.313 -70.921,0 0,-36.313 z m 35.46,-2.527 c 0.471,0 0.846,0.378 0.846,0.84 0,0.468 -0.375,0.854 -0.846,0.854 -0.462,0 -0.841,-0.386 -0.841,-0.854 0,-0.461 0.379,-0.84 0.841,-0.84 z m -6.331,42.723 0,-1.017 12.662,0 0,1.02 -12.662,-0.003 0,0 z"
     id="path4"
     style="fill:#333333;fill-opacity:1"
     inkscape:connector-curvature="0" /><g
     id="g6"
     style="fill:#333333;fill-opacity:1"
     transform="translate(-1.6883167,-0.791405)"><path
       d="M 62.996,22.803 C 62.893,17.924 58.902,14 54.001,14 50.766,14 47.932,15.705 46.345,18.265 45.761,18.093 45.141,18 44.501,18 41.716,18 39.341,19.75 38.414,22.211 35.87,22.907 34,25.236 34,28 c 0,3.307 2.687,5.999 6,5.999 l 19.997,0 C 63.31,33.999 65.999,31.312 66,28 65.999,25.782 64.793,23.84 62.996,22.803 Z m -2.992,9.194 -20.007,0 C 37.789,31.997 36,30.202 36,28 c 0,-2.208 1.793,-4 3.997,-4 l 0,-0.001 0.027,0 c 0.25,-2.25 2.157,-4 4.474,-4 1.057,0 2.028,0.366 2.798,0.976 0.87,-2.879 3.54,-4.975 6.703,-4.975 3.864,0 6.998,3.134 6.998,7 0,0.375 -0.029,0.745 -0.084,1.104 1.769,0.412 3.085,2.003 3.085,3.896 0,2.208 -1.793,3.997 -3.994,3.997 z"
       id="path8"
       style="fill:#333333;fill-opacity:1"
       inkscape:connector-curvature="0" /><path
       d="m 51.749,27.027 1.974,0 c 0.164,0 0.297,-0.133 0.297,-0.296 l 0,-1.675 c 0,-0.164 -0.133,-0.297 -0.297,-0.297 l -1.974,0 -2.269,0 -1.973,0 c -0.164,0 -0.298,0.133 -0.298,0.297 l 0,1.675 c 0,0.163 0.134,0.296 0.298,0.296 l 1.973,0"
       id="path10"
       style="fill:#333333;fill-opacity:1"
       inkscape:connector-curvature="0" /></g></svg>