<?xml version="1.0" encoding="UTF-8" standalone="no"?>
<svg
   xmlns:dc="http://purl.org/dc/elements/1.1/"
   xmlns:cc="http://creativecommons.org/ns#"
   xmlns:rdf="http://www.w3.org/1999/02/22-rdf-syntax-ns#"
   xmlns:svg="http://www.w3.org/2000/svg"
   xmlns="http://www.w3.org/2000/svg"
   xmlns:sodipodi="http://sodipodi.sourceforge.net/DTD/sodipodi-0.dtd"
   xmlns:inkscape="http://www.inkscape.org/namespaces/inkscape"
   version="1.0"
   x="0px"
   y="0px"
   viewBox="0 0 77.571 60"
   enable-background="new 0 0 87.571 100"
   xml:space="preserve"
   id="svg3336"
   inkscape:version="0.91 r13725"
   sodipodi:docname="communauty.svg"
   width="77.570999"
   height="60"><metadata
     id="metadata3364"><rdf:RDF><cc:Work
         rdf:about=""><dc:format>image/svg+xml</dc:format><dc:type
           rdf:resource="http://purl.org/dc/dcmitype/StillImage" /><dc:title></dc:title></cc:Work></rdf:RDF></metadata><defs
     id="defs3362" /><sodipodi:namedview
     pagecolor="#ffffff"
     bordercolor="#666666"
     borderopacity="1"
     objecttolerance="10"
     gridtolerance="10"
     guidetolerance="10"
     inkscape:pageopacity="0"
     inkscape:pageshadow="2"
     inkscape:window-width="1920"
     inkscape:window-height="1017"
     id="namedview3360"
     showgrid="false"
     inkscape:zoom="6.8"
     inkscape:cx="23.923211"
     inkscape:cy="38.949803"
     inkscape:window-x="-8"
     inkscape:window-y="-8"
     inkscape:window-maximized="1"
     inkscape:current-layer="svg3336" /><ellipse
     cx="65.236351"
     cy="16.55806"
     rx="4.711"
     ry="4.6729999"
     id="ellipse3338"
     style="fill:#333333;fill-opacity:1" /><path
     d="m 13.517353,15.731059 c -0.265,0.572 -0.845,0.971 -1.518,0.971 -0.674,0 -1.253,-0.399 -1.519,-0.971 l -3.061,0 c -0.05,0.269 -0.079,0.543 -0.079,0.828 0,2.579 2.096,4.671 4.677,4.671 2.584,0 4.677,-2.092 4.677,-4.671 0,-0.284 -0.03,-0.559 -0.078,-0.828 l -3.099,0 z"
     id="path3346"
     style="fill:#333333;fill-opacity:1"
     inkscape:connector-curvature="0" /><path
     d="m 10.376353,14.628059 c 0.184,-0.725 0.839,-1.265 1.623,-1.265 0.784,0 1.444,0.54 1.621,1.265 l 2.653,0 c -0.736,-1.616 -2.363,-2.742 -4.256,-2.742 -1.892,0 -3.52,1.126 -4.256,2.742 l 2.615,0 z"
     id="path3348"
     style="fill:#333333;fill-opacity:1"
     inkscape:connector-curvature="0" /><path
     d="m 12.010353,27.431059 c 1.687,0 2.68,-0.617 2.716,-5.281 -1.693,0 -3.686,0 -5.357,0 0.039,4.664 0.944,5.281 2.641,5.281 z"
     id="path3350"
     style="fill:#333333;fill-opacity:1"
     inkscape:connector-curvature="0" /><path
     d="m 18.761706,29.414 1.709,0 c 0,0 0,11.75 0,13.062 0,1.132 0.916,2.052 2.041,2.052 1.132,0 2.023,-0.92 2.023,-2.052 0,-1.128 0,-12.803 0,-14.488 0,-3.306 -2.709,-5.985 -6.014,-5.985 -0.382,0 -1.152,0 -2.116,0 0,4.552 -1.329,6.479 -3.288,6.479 l 0,5.265 c 0.577,0.248 0.986,0.823 0.986,1.491 0,0.894 -0.717,1.632 -1.612,1.632 -0.897,0 -1.612,-0.712 -1.612,-1.61 0,-0.672 0.403,-1.242 0.981,-1.49 l 0,-5.268 c -2.058,0 -3.325,-2.103 -3.325,-6.499 -0.923,0 -1.654,0 -2.012,0 -3.3090001,0 -6.25800019,2.679 -6.25800019,5.985 0,1.685 0,13.36 0,14.488 0,1.132 0.88600009,2.052 2.01800009,2.052 1.129,0 2.047,-0.92 2.047,-2.052 0,-1.312 0,-13.062 0,-13.062 l 1.6920001,0 0,15.866 12.74,0 0,-15.866 z"
     id="path3352"
     style="fill:#333333;fill-opacity:1"
     inkscape:connector-curvature="0" /><path
     d="m 30.779353,24.269059 0,8.354 -1.25,0 c -0.237,0 -0.428,-0.19 -0.428,-0.428 l 0,-10.781 c 0,-0.365 0.271,-0.662 0.645,-0.662 l 5.525,0 c 0.372,0 0.645,0.296 0.645,0.661 l 0,0.633 8.541,0 c 0.238,0 0.429,0.192 0.429,0.427 l 0,2.424 -7.29,0 0,-0.635 c 0,-0.364 -0.273,-0.661 -0.648,-0.661 l -5.52,0 c -0.377,0.001 -0.649,0.302 -0.649,0.668 z"
     id="path3354"
     inkscape:connector-curvature="0"
     style="fill:#333333;fill-opacity:1" /><path
     d="m 48.242353,37.682059 c 0,0.238 -0.19,0.428 -0.428,0.428 l -13.676,0 -1.25,0 c -0.238,0 -0.429,-0.189 -0.429,-0.428 l 0,-10.781 c 0,-0.365 0.273,-0.662 0.646,-0.662 l 5.522,0 c 0.374,0 0.647,0.295 0.647,0.66 l 0,0.633 8.541,0 c 0.237,0 0.428,0.191 0.428,0.427 l 0,9.723 z m -6.619,-6.137 0,-2.543 -2.544,0 0,2.543 -2.544,0 0,2.544 2.544,0 0,2.543 2.544,0 0,-2.543 2.543,0 0,-2.544 -2.543,0 z"
     id="path3356"
     inkscape:connector-curvature="0"
     style="fill:#333333;fill-opacity:1" /><path
     d="m 49.183353,0.282059 -21.022,0 c -2.58,0 -4.672,2.091 -4.672,4.671 l 0,50.27 c 0,2.58 2.092,4.672001 4.672,4.672001 l 21.021,0 c 2.58,0 4.671,-2.092001 4.671,-4.672001 l 0,-50.27 c 0.001,-2.58 -2.09,-4.671 -4.67,-4.671 z m 2.336,49.174 -25.694,0 0,-38.735 25.693,0 0,38.735 z"
     id="path3358"
     style="fill:#333333;fill-opacity:1"
     inkscape:connector-curvature="0" /><path
     inkscape:connector-curvature="0"
     d="m 71.479647,30.331324 1.709,0 c 0,0 0,11.75 0,13.062 0,1.132 0.916,2.052 2.041,2.052 1.132,0 2.023,-0.92 2.023,-2.052 0,-1.128 0,-12.803 0,-14.488 0,-3.306 -2.709,-5.985 -6.014,-5.985 -0.382,0 -1.152,0 -2.116,0 0,4.552 -1.329,6.479 -3.288,6.479 l 0,5.265 c 0.577,0.248 0.986,0.823 0.986,1.491 0,0.894 -0.717,1.632 -1.612,1.632 -0.897,0 -1.612,-0.712 -1.612,-1.61 0,-0.672 0.403,-1.242 0.981,-1.49 l 0,-5.268 c -2.058,0 -3.325,-2.103 -3.325,-6.499 -0.923,0 -1.654,0 -2.012,0 -3.309,0 -6.258,2.679 -6.258,5.985 0,1.685 0,13.36 0,14.488 0,1.132 0.886,2.052 2.018,2.052 1.129,0 2.047,-0.92 2.047,-2.052 0,-1.312 0,-13.062 0,-13.062 l 1.692,0 0,15.866 12.74,0 0,-15.866 z"
     id="path3352-5"
     style="fill:#333333;fill-opacity:1" /><rect
     style="fill:none;fill-opacity:1"
     id="rect4143"
     width="84.411766"
     height="62.794117"
     x="0.29411766"
     y="-48.235294" /><rect
     style="fill:none;fill-opacity:1"
     id="rect4145"
     width="2.9411764"
     height="4.1176472"
     x="68.529411"
     y="39.411766" /><rect
     style="fill:none;fill-opacity:1"
     id="rect4147"
     width="60.588234"
     height="21.029411"
     x="2.2058825"
     y="17.794117" /><rect
     style="fill:none;fill-opacity:1"
     id="rect4149"
     width="63.823528"
     height="30.294117"
     x="2.2058825"
     y="18.235294" /><rect
     style="fill:none;fill-opacity:1"
     id="rect4151"
     width="78.970596"
     height="60.588238"
     x="3.3823528"
     y="-46.176468" /></svg>