<?xml version="1.0" encoding="UTF-8" standalone="no"?>
<svg
   xmlns:dc="http://purl.org/dc/elements/1.1/"
   xmlns:cc="http://creativecommons.org/ns#"
   xmlns:rdf="http://www.w3.org/1999/02/22-rdf-syntax-ns#"
   xmlns:svg="http://www.w3.org/2000/svg"
   xmlns="http://www.w3.org/2000/svg"
   xmlns:sodipodi="http://sodipodi.sourceforge.net/DTD/sodipodi-0.dtd"
   xmlns:inkscape="http://www.inkscape.org/namespaces/inkscape"
   version="1.1"
   x="0px"
   y="0px"
   viewBox="0 0 91 76"
   enable-background="new 0 0 100 100"
   xml:space="preserve"
   id="svg2"
   inkscape:version="0.91 r13725"
   sodipodi:docname="e-sante-black.svg"
   width="91"
   height="76"><metadata
     id="metadata10"><rdf:RDF><cc:Work
         rdf:about=""><dc:format>image/svg+xml</dc:format><dc:type
           rdf:resource="http://purl.org/dc/dcmitype/StillImage" /><dc:title></dc:title></cc:Work></rdf:RDF></metadata><defs
     id="defs8" /><sodipodi:namedview
     pagecolor="#ffffff"
     bordercolor="#666666"
     borderopacity="1"
     objecttolerance="10"
     gridtolerance="10"
     guidetolerance="10"
     inkscape:pageopacity="0"
     inkscape:pageshadow="2"
     inkscape:window-width="1920"
     inkscape:window-height="1017"
     id="namedview6"
     showgrid="false"
     inkscape:zoom="10.680141"
     inkscape:cx="30.963032"
     inkscape:cy="49.78904"
     inkscape:window-x="-8"
     inkscape:window-y="-8"
     inkscape:window-maximized="1"
     inkscape:current-layer="svg2" /><path
     d="m 84.733887,1.262108 -34.405,0 c -2.995,0 -5.43,2.436 -5.43,5.432 l 0,19.277 c 0,2.995 2.435,5.432 5.43,5.432 l 10.789,0 0,21.060002 c 0,10.748 -8.744,19.49 -19.492,19.49 -10.748,0 -19.494,-8.742 -19.494,-19.49 l 0.002,-3.974002 c 10.135,-0.934 18.104,-9.485 18.104,-19.862 l 0,-18.932 c 0,-3.115 -1.838,-5.806 -4.481,-7.065 -0.457,-1.427 -1.796,-2.465 -3.375,-2.465 -1.955,0 -3.544,1.59 -3.544,3.545 0,1.954 1.59,3.544 3.544,3.544 0.929,0 1.774,-0.36 2.406,-0.947 1.067,0.749 1.766,1.987 1.766,3.388 l 0,18.931 c 0,8.967 -7.293,16.262 -16.264,16.262 -8.965,0 -16.261,-7.295 -16.261,-16.262 l 0,-18.931 c 0,-1.434 0.733,-2.7 1.846,-3.443 0.64,0.62 1.5069999,1.002 2.4689999,1.002 1.9540001,0 3.5450001,-1.59 3.5450001,-3.544 0,-1.955 -1.591,-3.545 -3.5450001,-3.545 -1.5489999,0 -2.8669999,0.999 -3.3479999,2.386 -2.735,1.22 -4.64900002,3.96 -4.64900002,7.144 l 0,18.931 c 0,10.376 7.96499992,18.924 18.10300002,19.858 l 0,3.978002 c 0,12.776 10.398,23.173 23.177,23.173 12.778,0 23.177,-10.396 23.177,-23.173 l 0,-21.060002 19.93,0 c 2.994,0 5.431,-2.437 5.431,-5.432 l 0,-19.277 c 0,-2.996 -2.437,-5.431 -5.431,-5.431 l 0,0 z m -5.285,25.093 c 0,0.611 -0.491,1.103 -1.1,1.103 l -13.549,0 0,-3.544 c 3.494,-0.833 6.102,-3.976 6.102,-7.722 0,-4.379 -3.562,-7.945 -7.943,-7.945 -4.383,0 -7.946,3.565 -7.946,7.945 0,3.746 2.608,6.888 6.105,7.722 l 0,3.544 -10.882,0 c -0.606,0 -1.1,-0.492 -1.1,-1.103 l 0,-20.048 c 0,-0.608 0.493,-1.099 1.1,-1.099 l 28.113,0 c 0.608,0 1.1,0.491 1.1,1.099 l 0,20.048 z m 4.489,-7.82 c -1.214,0 -2.2,-0.987 -2.2,-2.203 0,-1.214 0.986,-2.205 2.2,-2.205 1.215,0 2.203,0.99 2.203,2.205 0,1.215 -0.988,2.203 -2.203,2.203 l 0,0 z m 0,0"
     id="path4"
     style="fill:#333333;fill-opacity:1"
     inkscape:connector-curvature="0" /></svg>